# xmcd
#
# Track frame offsets:
# 150
# 27576
# 39548
# 56658
# 74443
# 87098
# 105595
# 119665
# 137887
# 148000
# 162868
#
# Disc length: 2379 seconds
#
#
# Revision: 0
# Processed by: cddbd v1.5.2PL0 Copyright (c) Steve Scherf et al.
# Submitted via: FreeRIP 2.945 
#
DISCID=a109490b
DTITLE=Lindalva e Lavandeira do Norte - Os Feras da Embolada
DYEAR=2006
DGENRE=Embolada
TTITLE0=Desafio malcriado
TTITLE1=Nomoro de hoje em dia
TTITLE2=Matuto no forró
TTITLE3=Meu nascimento
TTITLE4=A mulher gorda
TTITLE5=A mulher magra
TTITLE6=Rojão pernambucano
TTITLE7=Nao queira pegar carona
TTITLE8=Tudo eu sei ninguém me ensina
TTITLE9=Minha moleza
TTITLE10=Coco de amor e saudade
EXTD=Bom
EXTT0=
EXTT1=
EXTT2=
EXTT3=
EXTT4=
EXTT5=
EXTT6=
EXTT7=
EXTT8=
EXTT9=
EXTT10=
PLAYORDER=
